<?xml version="1.0" encoding="UTF-8" standalone="no"?>
<svg
   width="16"
   height="16"
   version="1.1"
   id="svg1010"
   sodipodi:docname="move_to_workspace_right_hover.svg"
   inkscape:version="1.1 (c68e22c387, 2021-05-23)"
   xmlns:inkscape="http://www.inkscape.org/namespaces/inkscape"
   xmlns:sodipodi="http://sodipodi.sourceforge.net/DTD/sodipodi-0.dtd"
   xmlns="http://www.w3.org/2000/svg"
   xmlns:svg="http://www.w3.org/2000/svg">
  <defs
     id="defs1014" />
  <sodipodi:namedview
     id="namedview1012"
     pagecolor="#505050"
     bordercolor="#eeeeee"
     borderopacity="1"
     inkscape:pageshadow="0"
     inkscape:pageopacity="0"
     inkscape:pagecheckerboard="0"
     showgrid="false"
     inkscape:zoom="48.3125"
     inkscape:cx="8"
     inkscape:cy="8"
     inkscape:window-width="1920"
     inkscape:window-height="1003"
     inkscape:window-x="0"
     inkscape:window-y="0"
     inkscape:window-maximized="1"
     inkscape:current-layer="svg1010" />
  <g
     font-weight="400"
     fill="#474747"
     id="g1008"
     style="fill:#ffffff;fill-opacity:1">
    <path
       d="M6.5 2A3.515 3.515 0 003 5.5V6h2v-.5C5 4.66 5.66 4 6.5 4S8 4.66 8 5.5V12h2V5.5C10 3.579 8.421 2 6.5 2z"
       style="line-height:normal;font-variant-ligatures:normal;font-variant-position:normal;font-variant-caps:normal;font-variant-numeric:normal;font-variant-alternates:normal;font-feature-settings:normal;text-indent:0;text-align:start;text-decoration-line:none;text-decoration-style:solid;text-decoration-color:#000;text-transform:none;text-orientation:mixed;shape-padding:0;isolation:auto;mix-blend-mode:normal;marker:none;fill:#ffffff;fill-opacity:1"
       color="#000"
       font-family="sans-serif"
       overflow="visible"
       id="path1004" />
    <path
       d="M13 9h-1c-.257 0-.528.13-.719.313L9 11.593l-2.281-2.28C6.529 9.13 6.257 9 6 9H5v1c0 .31.09.552.281.75L9 14.406l3.719-3.656c.19-.198.281-.44.281-.75z"
       style="line-height:normal;-inkscape-font-specification:'Bitstream Vera Sans';text-indent:0;text-align:start;text-decoration-line:none;text-transform:none;marker:none;fill:#ffffff;fill-opacity:1"
       color="#bebebe"
       font-family="Bitstream Vera Sans"
       overflow="visible"
       id="path1006" />
  </g>
</svg>
